<svg width="900" height="1260" viewBox="0 0 900 1260" fill="none" xmlns="http://www.w3.org/2000/svg">
  <rect width="900" height="1260" rx="40" fill="#F5F5F1"/>
  <rect x="48" y="48" width="804" height="1164" rx="28" fill="white" stroke="#E3E8DE"/>
  <rect x="96" y="96" width="708" height="120" rx="28" fill="#F1F7EE"/>
  <text x="132" y="162" fill="#101418" font-size="42" font-family="Arial" font-weight="700">Data Focus</text>
  <text x="132" y="198" fill="#69756A" font-size="18" font-family="Arial">analytics / business intelligence</text>
  <rect x="132" y="260" width="180" height="14" rx="7" fill="#4C8C4A"/>
  <rect x="132" y="302" width="636" height="10" rx="5" fill="#E2E8DE"/>
  <rect x="132" y="328" width="604" height="10" rx="5" fill="#E2E8DE"/>
  <rect x="132" y="392" width="636" height="200" rx="24" fill="#F9FBF8" stroke="#E3E8DE"/>
  <rect x="164" y="432" width="150" height="12" rx="6" fill="#4C8C4A"/>
  <rect x="164" y="470" width="572" height="10" rx="5" fill="#E2E8DE"/>
  <rect x="164" y="496" width="548" height="10" rx="5" fill="#E2E8DE"/>
  <rect x="164" y="522" width="524" height="10" rx="5" fill="#E2E8DE"/>
  <rect x="164" y="560" width="180" height="8" rx="4" fill="#A9D5A8"/>
  <rect x="364" y="560" width="120" height="8" rx="4" fill="#C5E3C4"/>
  <rect x="504" y="560" width="92" height="8" rx="4" fill="#D9ECD8"/>
  <rect x="132" y="646" width="636" height="340" rx="24" fill="#FBFCFE" stroke="#E5E7EB"/>
  <rect x="164" y="686" width="150" height="12" rx="6" fill="#2151FF"/>
  <rect x="164" y="722" width="572" height="10" rx="5" fill="#E5E7EB"/>
  <rect x="164" y="748" width="548" height="10" rx="5" fill="#E5E7EB"/>
  <rect x="164" y="774" width="532" height="10" rx="5" fill="#E5E7EB"/>
  <rect x="164" y="830" width="160" height="110" rx="20" fill="#EEF3FF"/>
  <rect x="346" y="830" width="160" height="110" rx="20" fill="#F3F7EF"/>
  <rect x="528" y="830" width="160" height="110" rx="20" fill="#FFF4EC"/>
</svg>
