<svg width="900" height="1260" viewBox="0 0 900 1260" fill="none" xmlns="http://www.w3.org/2000/svg">
  <rect width="900" height="1260" rx="40" fill="#F6F5F1"/>
  <rect x="48" y="48" width="804" height="1164" rx="28" fill="white" stroke="#E3E5F3"/>
  <rect x="96" y="96" width="218" height="1068" rx="24" fill="#EEF2FF"/>
  <rect x="352" y="120" width="408" height="24" rx="12" fill="#101418"/>
  <text x="128" y="190" fill="#2151FF" font-size="40" font-family="Arial" font-weight="700">Design</text>
  <text x="128" y="232" fill="#101418" font-size="40" font-family="Arial" font-weight="700">Showcase</text>
  <rect x="128" y="290" width="154" height="12" rx="6" fill="#2151FF"/>
  <rect x="128" y="332" width="154" height="12" rx="6" fill="#2151FF"/>
  <rect x="128" y="374" width="154" height="12" rx="6" fill="#2151FF"/>
  <rect x="128" y="442" width="154" height="12" rx="6" fill="#2151FF"/>
  <rect x="128" y="484" width="120" height="120" rx="22" fill="#D8E0FF"/>
  <rect x="128" y="630" width="154" height="12" rx="6" fill="#2151FF"/>
  <rect x="128" y="672" width="154" height="12" rx="6" fill="#2151FF"/>
  <rect x="352" y="188" width="376" height="14" rx="7" fill="#2151FF"/>
  <rect x="352" y="232" width="376" height="10" rx="5" fill="#E5E7EB"/>
  <rect x="352" y="258" width="354" height="10" rx="5" fill="#E5E7EB"/>
  <rect x="352" y="284" width="362" height="10" rx="5" fill="#E5E7EB"/>
  <rect x="352" y="352" width="376" height="220" rx="24" fill="#F8F9FF" stroke="#E5E7EB"/>
  <rect x="380" y="384" width="156" height="12" rx="6" fill="#2151FF"/>
  <rect x="380" y="420" width="320" height="10" rx="5" fill="#E5E7EB"/>
  <rect x="380" y="446" width="294" height="10" rx="5" fill="#E5E7EB"/>
  <rect x="352" y="618" width="376" height="220" rx="24" fill="#FFF7F1" stroke="#F0E4DA"/>
  <rect x="380" y="650" width="156" height="12" rx="6" fill="#FF8C53"/>
  <rect x="380" y="686" width="320" height="10" rx="5" fill="#E9E2DA"/>
  <rect x="380" y="712" width="294" height="10" rx="5" fill="#E9E2DA"/>
</svg>
