<svg width="900" height="1260" viewBox="0 0 900 1260" fill="none" xmlns="http://www.w3.org/2000/svg">
  <rect width="900" height="1260" rx="40" fill="#F4F2EE"/>
  <rect x="48" y="48" width="804" height="1164" rx="28" fill="white" stroke="#E5E0DA"/>
  <text x="450" y="154" fill="#101418" font-size="44" font-family="Georgia" font-weight="700" text-anchor="middle">Executive Brief</text>
  <text x="450" y="196" fill="#6B7280" font-size="18" font-family="Arial" text-anchor="middle">consulting / management / strategy</text>
  <rect x="188" y="236" width="524" height="1" fill="#101418"/>
  <rect x="112" y="284" width="196" height="14" rx="7" fill="#101418"/>
  <rect x="112" y="324" width="676" height="10" rx="5" fill="#E5E7EB"/>
  <rect x="112" y="350" width="652" height="10" rx="5" fill="#E5E7EB"/>
  <rect x="112" y="376" width="664" height="10" rx="5" fill="#E5E7EB"/>
  <rect x="112" y="438" width="676" height="200" rx="24" fill="#FAF8F5" stroke="#ECE7E0"/>
  <rect x="144" y="474" width="172" height="12" rx="6" fill="#101418"/>
  <rect x="144" y="510" width="612" height="10" rx="5" fill="#E5E0DA"/>
  <rect x="144" y="536" width="598" height="10" rx="5" fill="#E5E0DA"/>
  <rect x="144" y="562" width="576" height="10" rx="5" fill="#E5E0DA"/>
  <rect x="112" y="692" width="196" height="14" rx="7" fill="#101418"/>
  <rect x="112" y="732" width="676" height="10" rx="5" fill="#E5E7EB"/>
  <rect x="112" y="758" width="652" height="10" rx="5" fill="#E5E7EB"/>
  <rect x="112" y="784" width="664" height="10" rx="5" fill="#E5E7EB"/>
  <rect x="112" y="846" width="676" height="220" rx="24" fill="#FAF8F5" stroke="#ECE7E0"/>
  <rect x="144" y="882" width="172" height="12" rx="6" fill="#101418"/>
  <rect x="144" y="918" width="612" height="10" rx="5" fill="#E5E0DA"/>
  <rect x="144" y="944" width="598" height="10" rx="5" fill="#E5E0DA"/>
  <rect x="144" y="970" width="576" height="10" rx="5" fill="#E5E0DA"/>
</svg>
