<svg width="900" height="1260" viewBox="0 0 900 1260" fill="none" xmlns="http://www.w3.org/2000/svg">
  <rect width="900" height="1260" rx="40" fill="#F8F4ED"/>
  <rect x="48" y="48" width="804" height="1164" rx="28" fill="white" stroke="#ECE0D2"/>
  <rect x="96" y="96" width="708" height="84" rx="20" fill="#FFF4EC"/>
  <text x="128" y="148" fill="#101418" font-size="40" font-family="Arial" font-weight="700">One-Page Priority</text>
  <rect x="96" y="224" width="306" height="860" rx="24" fill="#FFF9F5" stroke="#F2E6DA"/>
  <rect x="434" y="224" width="306" height="860" rx="24" fill="#F9FAFB" stroke="#E5E7EB"/>
  <rect x="128" y="268" width="120" height="12" rx="6" fill="#FF8C53"/>
  <rect x="128" y="304" width="242" height="9" rx="4.5" fill="#E9E1D8"/>
  <rect x="128" y="328" width="222" height="9" rx="4.5" fill="#E9E1D8"/>
  <rect x="128" y="352" width="234" height="9" rx="4.5" fill="#E9E1D8"/>
  <rect x="128" y="408" width="120" height="12" rx="6" fill="#FF8C53"/>
  <rect x="128" y="444" width="242" height="9" rx="4.5" fill="#E9E1D8"/>
  <rect x="128" y="468" width="224" height="9" rx="4.5" fill="#E9E1D8"/>
  <rect x="128" y="492" width="228" height="9" rx="4.5" fill="#E9E1D8"/>
  <rect x="466" y="268" width="120" height="12" rx="6" fill="#2151FF"/>
  <rect x="466" y="304" width="242" height="9" rx="4.5" fill="#E5E7EB"/>
  <rect x="466" y="328" width="222" height="9" rx="4.5" fill="#E5E7EB"/>
  <rect x="466" y="352" width="234" height="9" rx="4.5" fill="#E5E7EB"/>
  <rect x="466" y="408" width="120" height="12" rx="6" fill="#2151FF"/>
  <rect x="466" y="444" width="242" height="9" rx="4.5" fill="#E5E7EB"/>
  <rect x="466" y="468" width="224" height="9" rx="4.5" fill="#E5E7EB"/>
  <rect x="466" y="492" width="228" height="9" rx="4.5" fill="#E5E7EB"/>
  <rect x="128" y="870" width="240" height="150" rx="20" fill="#FFF1E8"/>
  <rect x="466" y="870" width="240" height="150" rx="20" fill="#EEF3FF"/>
</svg>
